# 3ds Max Wavefront OBJ Exporter v0.97b - (c)2007 guruware
# File Created: 10.02.2015 16:52:07

mtllib Cartoon_Pine_Tree.mtl

#
# object Cone001
#

v  67.2812 -61.0133 -0.1328
v  47.6899 -61.0133 -47.4301
v  33.7554 -28.6864 -33.4955
v  47.5746 -28.6864 -0.1328
v  0.3926 -61.0133 -67.0213
v  0.3926 -28.6864 -47.3148
v  -46.9047 -61.0133 -47.4301
v  -32.9701 -28.6864 -33.4955
v  -66.4959 -61.0133 -0.1327
v  -46.7894 -28.6864 -0.1327
v  -46.9047 -61.0133 47.1646
v  -32.9701 -28.6864 33.2300
v  0.3926 -61.0133 66.7558
v  0.3926 -28.6864 47.0493
v  47.6899 -61.0133 47.1646
v  33.7554 -28.6864 33.2300
v  19.0201 17.7884 -18.7602
v  26.7358 17.7884 -0.1328
v  0.3926 17.7884 -26.4760
v  -18.2348 17.7884 -18.7602
v  -25.9506 17.7884 -0.1327
v  -18.2348 17.7884 18.4947
v  0.3926 17.7884 26.2105
v  19.0201 17.7884 18.4947
v  25.4147 14.1891 -25.1548
v  13.3947 60.5178 -13.1348
v  18.7803 60.5178 -0.1328
v  35.7792 14.1891 -0.1328
v  0.3926 14.1891 -35.5193
v  0.3926 60.5178 -18.5204
v  -24.6294 14.1891 -25.1548
v  -12.6094 60.5178 -13.1348
v  -34.9939 14.1891 -0.1327
v  -17.9950 60.5178 -0.1328
v  -24.6294 14.1891 24.8893
v  -12.6094 60.5178 12.8693
v  0.3926 14.1891 35.2538
v  0.3926 60.5178 18.2549
v  25.4147 14.1891 24.8893
v  13.3947 60.5178 12.8693
v  27.5921 57.0646 -0.1328
v  19.6256 57.0646 -19.3657
v  11.8091 93.2661 -11.5492
v  16.5379 93.2661 -0.1328
v  0.3926 57.0646 -27.3322
v  0.3926 93.2661 -16.2780
v  -18.8403 57.0646 -19.3657
v  -11.0238 93.2661 -11.5492
v  -26.8069 57.0646 -0.1327
v  -15.7527 93.2661 -0.1328
v  -18.8403 57.0646 19.1002
v  -11.0238 93.2661 11.2837
v  0.3926 57.0646 27.0667
v  0.3926 93.2661 16.0125
v  19.6256 57.0646 19.1002
v  11.8091 93.2661 11.2837
v  0.3926 149.4897 -0.1328
v  0.3926 -49.4988 35.4108
v  -24.7404 -49.4988 25.0003
v  -35.1509 -49.4988 -0.1328
v  -24.7404 -49.4988 -25.2658
v  0.3926 -49.4988 -35.6763
v  25.5257 -49.4988 -25.2658
v  35.9361 -49.4988 -0.1328
v  25.5257 -49.4988 25.0003
v  8.5156 -123.7583 -15.3252
v  5.0995 -113.2371 -9.4083
v  10.7063 -113.2371 0.3031
v  17.5386 -123.7583 0.3031
v  -9.5304 -123.7583 -15.3252
v  -6.1143 -113.2371 -9.4083
v  -18.5534 -123.7583 0.3031
v  -11.7212 -113.2371 0.3031
v  -9.5304 -123.7583 15.9314
v  -6.1143 -113.2371 10.0145
v  8.5156 -123.7583 15.9314
v  5.0995 -113.2371 10.0145
v  2.7547 -45.4575 -5.3470
v  6.0167 -45.4575 0.3031
v  -3.7695 -45.4575 -5.3470
v  -7.0316 -45.4575 0.3031
v  -3.7695 -45.4575 5.9532
v  2.7547 -45.4575 5.9532
# 83 vertices

vn 0.8050 0.4907 -0.3334
vn 0.3334 0.4907 -0.8050
vn -0.3334 0.4907 -0.8050
vn -0.8050 0.4907 -0.3334
vn -0.8050 0.4907 0.3334
vn -0.3334 0.4907 0.8050
vn 0.3334 0.4907 0.8050
vn 0.8050 0.4907 0.3334
vn 0.8535 0.3827 -0.3535
vn 0.3535 0.3827 -0.8535
vn -0.3535 0.3827 -0.8535
vn -0.8535 0.3827 -0.3535
vn -0.8535 0.3827 0.3535
vn -0.3535 0.3827 0.8535
vn 0.3535 0.3827 0.8535
vn 0.8535 0.3827 0.3535
vn 0.8750 0.3210 -0.3624
vn 0.3624 0.3210 -0.8750
vn -0.3624 0.3210 -0.8750
vn -0.8750 0.3210 -0.3624
vn -0.8750 0.3210 0.3624
vn -0.3624 0.3210 0.8750
vn 0.3624 0.3210 0.8750
vn 0.8750 0.3210 0.3624
vn 0.8892 0.2715 -0.3683
vn 0.3683 0.2715 -0.8892
vn -0.3683 0.2715 -0.8892
vn -0.8892 0.2715 -0.3683
vn -0.8892 0.2715 0.3683
vn -0.3683 0.2715 0.8892
vn 0.3683 0.2715 0.8892
vn 0.8892 0.2715 0.3683
vn 0.8930 0.2564 -0.3699
vn 0.0000 0.0000 -0.0000
vn 0.3699 0.2564 -0.8930
vn -0.3699 0.2564 -0.8930
vn -0.8930 0.2564 -0.3699
vn -0.8930 0.2564 0.3699
vn -0.3699 0.2564 0.8930
vn 0.3699 0.2564 0.8930
vn 0.8930 0.2564 0.3699
vn 0.0000 -1.0000 -0.0000
vn -0.3414 -0.9292 0.1414
vn -0.3414 -0.9292 -0.1414
vn -0.1414 -0.9292 -0.3414
vn 0.1414 -0.9292 -0.3414
vn 0.3414 -0.9292 -0.1414
vn 0.3414 -0.9292 0.1414
vn 0.1414 -0.9292 0.3414
vn -0.1414 -0.9292 0.3414
vn -0.3608 -0.9206 0.1494
vn -0.1494 -0.9206 0.3608
vn 0.1494 -0.9206 0.3608
vn 0.3608 -0.9206 0.1494
vn 0.3608 -0.9206 -0.1494
vn 0.1494 -0.9206 -0.3608
vn -0.1494 -0.9206 -0.3608
vn -0.3608 -0.9206 -0.1494
vn -0.3655 -0.9184 0.1514
vn -0.1514 -0.9184 0.3655
vn 0.1514 -0.9184 0.3655
vn 0.3655 -0.9184 0.1514
vn 0.3655 -0.9184 -0.1514
vn 0.1514 -0.9184 -0.3655
vn -0.1514 -0.9184 -0.3655
vn -0.3655 -0.9184 -0.1514
vn 0.4193 0.5446 -0.7263
vn 0.4695 0.3439 -0.8132
vn 0.9390 0.3439 0.0000
vn 0.8387 0.5446 0.0000
vn -0.4193 0.5446 -0.7263
vn -0.4695 0.3439 -0.8132
vn -0.8387 0.5446 -0.0000
vn -0.9390 0.3439 0.0000
vn -0.4193 0.5446 0.7263
vn -0.4695 0.3439 0.8132
vn 0.4193 0.5446 0.7263
vn 0.4695 0.3439 0.8132
vn 0.4988 0.0690 -0.8640
vn 0.9976 0.0690 0.0000
vn -0.4988 0.0690 -0.8640
vn -0.9976 0.0690 0.0000
vn -0.4988 0.0690 0.8640
vn 0.4988 0.0690 0.8640
# 84 vertex normals

vt 0.5208 0.0020 0.0000
vt 0.6609 0.0020 0.0000
vt 0.6196 0.0977 0.0000
vt 0.5208 0.0977 0.0000
vt 0.0020 0.6226 0.0000
vt 0.1421 0.6226 0.0000
vt 0.1421 0.7184 0.0000
vt 0.0433 0.7184 0.0000
vt 0.2822 0.6226 0.0000
vt 0.2409 0.7184 0.0000
vt 0.0020 0.3807 0.0000
vt 0.1421 0.3807 0.0000
vt 0.1421 0.4765 0.0000
vt 0.0433 0.4765 0.0000
vt 0.2822 0.3807 0.0000
vt 0.2409 0.4765 0.0000
vt 0.2907 0.3807 0.0000
vt 0.4308 0.3807 0.0000
vt 0.4308 0.4765 0.0000
vt 0.3320 0.4765 0.0000
vt 0.5709 0.3807 0.0000
vt 0.5296 0.4765 0.0000
vt 0.3807 0.0020 0.0000
vt 0.4220 0.0977 0.0000
vt 0.5760 0.2354 0.0000
vt 0.5208 0.2354 0.0000
vt 0.1421 0.8560 0.0000
vt 0.0869 0.8560 0.0000
vt 0.1973 0.8560 0.0000
vt 0.1421 0.6141 0.0000
vt 0.0869 0.6141 0.0000
vt 0.1973 0.6141 0.0000
vt 0.4308 0.6141 0.0000
vt 0.3756 0.6141 0.0000
vt 0.4860 0.6141 0.0000
vt 0.4656 0.2354 0.0000
vt 0.1462 0.8645 0.0000
vt 0.1115 0.9980 0.0000
vt 0.0741 0.9980 0.0000
vt 0.0741 0.8645 0.0000
vt 0.9132 0.3807 0.0000
vt 0.9132 0.5142 0.0000
vt 0.8757 0.5142 0.0000
vt 0.8411 0.3807 0.0000
vt 0.9853 0.3807 0.0000
vt 0.9507 0.5142 0.0000
vt 0.8942 0.2095 0.0000
vt 0.8942 0.3430 0.0000
vt 0.8567 0.3430 0.0000
vt 0.8221 0.2095 0.0000
vt 0.9662 0.2095 0.0000
vt 0.9316 0.3430 0.0000
vt 0.7415 0.2095 0.0000
vt 0.7415 0.3430 0.0000
vt 0.7040 0.3430 0.0000
vt 0.6694 0.2095 0.0000
vt 0.8136 0.2095 0.0000
vt 0.7789 0.3430 0.0000
vt 0.0366 0.9980 0.0000
vt 0.0020 0.8645 0.0000
vt 0.4640 0.6226 0.0000
vt 0.5189 0.6226 0.0000
vt 0.4966 0.7260 0.0000
vt 0.4640 0.7260 0.0000
vt 0.5274 0.6226 0.0000
vt 0.5823 0.6226 0.0000
vt 0.5823 0.7260 0.0000
vt 0.5497 0.7260 0.0000
vt 0.6372 0.6226 0.0000
vt 0.6149 0.7260 0.0000
vt 0.6458 0.6226 0.0000
vt 0.7007 0.6226 0.0000
vt 0.7007 0.7260 0.0000
vt 0.6681 0.7260 0.0000
vt 0.7556 0.6226 0.0000
vt 0.7333 0.7260 0.0000
vt 0.2907 0.6226 0.0000
vt 0.3456 0.6226 0.0000
vt 0.3456 0.7260 0.0000
vt 0.3130 0.7260 0.0000
vt 0.4005 0.6226 0.0000
vt 0.3782 0.7260 0.0000
vt 0.4090 0.6226 0.0000
vt 0.4314 0.7260 0.0000
vt 0.4640 0.8865 0.0000
vt 0.5823 0.8865 0.0000
vt 0.7007 0.8865 0.0000
vt 0.3456 0.8865 0.0000
vt 0.1871 0.2854 0.0000
vt 0.1175 0.2566 0.0000
vt 0.0887 0.1871 0.0000
vt 0.1175 0.1175 0.0000
vt 0.1871 0.0887 0.0000
vt 0.2566 0.1175 0.0000
vt 0.2854 0.1871 0.0000
vt 0.2566 0.2566 0.0000
vt 0.3180 0.0562 0.0000
vt 0.3722 0.1871 0.0000
vt 0.3180 0.3180 0.0000
vt 0.1871 0.3722 0.0000
vt 0.0562 0.3180 0.0000
vt 0.0020 0.1871 0.0000
vt 0.0562 0.0562 0.0000
vt 0.1871 0.0020 0.0000
vt 0.7098 0.4031 0.0000
vt 0.7322 0.4571 0.0000
vt 0.7074 0.4571 0.0000
vt 0.6923 0.4206 0.0000
vt 0.6558 0.3807 0.0000
vt 0.6558 0.4055 0.0000
vt 0.6018 0.4031 0.0000
vt 0.6193 0.4206 0.0000
vt 0.5794 0.4571 0.0000
vt 0.6041 0.4571 0.0000
vt 0.6018 0.5111 0.0000
vt 0.6193 0.4936 0.0000
vt 0.6558 0.5335 0.0000
vt 0.6558 0.5087 0.0000
vt 0.7098 0.5111 0.0000
vt 0.6923 0.4936 0.0000
vt 0.8393 0.0311 0.0000
vt 0.8684 0.1015 0.0000
vt 0.8430 0.1015 0.0000
vt 0.8213 0.0491 0.0000
vt 0.7689 0.0020 0.0000
vt 0.7689 0.0274 0.0000
vt 0.6985 0.0311 0.0000
vt 0.7165 0.0491 0.0000
vt 0.6694 0.1015 0.0000
vt 0.6948 0.1015 0.0000
vt 0.6985 0.1718 0.0000
vt 0.7165 0.1539 0.0000
vt 0.7689 0.2010 0.0000
vt 0.7689 0.1756 0.0000
vt 0.8393 0.1718 0.0000
vt 0.8213 0.1539 0.0000
vt 0.8326 0.3807 0.0000
vt 0.8152 0.4116 0.0000
vt 0.7866 0.4116 0.0000
vt 0.7866 0.3807 0.0000
vt 0.9139 0.6226 0.0000
vt 0.9046 0.6514 0.0000
vt 0.8739 0.6514 0.0000
vt 0.8645 0.6226 0.0000
vt 0.8101 0.6226 0.0000
vt 0.8101 0.6536 0.0000
vt 0.7815 0.6536 0.0000
vt 0.7641 0.6226 0.0000
vt 0.8560 0.6226 0.0000
vt 0.8386 0.6536 0.0000
vt 0.9718 0.6226 0.0000
vt 0.9625 0.6514 0.0000
vt 0.9318 0.6514 0.0000
vt 0.9224 0.6226 0.0000
vt 0.7581 0.4116 0.0000
vt 0.7407 0.3807 0.0000
vt 0.4050 0.3281 0.0000
vt 0.3807 0.2860 0.0000
vt 0.4050 0.2439 0.0000
vt 0.4536 0.2439 0.0000
vt 0.4780 0.2860 0.0000
vt 0.4536 0.3281 0.0000
vt 0.8033 0.6110 0.0000
vt 0.7866 0.6110 0.0000
vt 0.8982 0.8369 0.0000
vt 0.8803 0.8369 0.0000
vt 0.8101 0.8529 0.0000
vt 0.7934 0.8529 0.0000
vt 0.8267 0.8529 0.0000
vt 0.9561 0.8369 0.0000
vt 0.9382 0.8369 0.0000
vt 0.7700 0.6110 0.0000
# 172 texture coords

g Cone001
usemtl 01___Default
f 1/1/1 2/2/1 3/3/1 
f 3/3/1 4/4/1 1/1/1 
f 2/5/2 5/6/2 6/7/2 
f 6/7/2 3/8/2 2/5/2 
f 5/6/3 7/9/3 8/10/3 
f 8/10/3 6/7/3 5/6/3 
f 7/11/4 9/12/4 10/13/4 
f 10/13/4 8/14/4 7/11/4 
f 9/12/5 11/15/5 12/16/5 
f 12/16/5 10/13/5 9/12/5 
f 11/17/6 13/18/6 14/19/6 
f 14/19/6 12/20/6 11/17/6 
f 13/18/7 15/21/7 16/22/7 
f 16/22/7 14/19/7 13/18/7 
f 15/23/8 1/1/8 4/4/8 
f 4/4/8 16/24/8 15/23/8 
f 3/3/9 17/25/9 18/26/9 
f 18/26/9 4/4/9 3/3/9 
f 6/7/10 19/27/10 17/28/10 
f 17/28/10 3/8/10 6/7/10 
f 8/10/11 20/29/11 19/27/11 
f 19/27/11 6/7/11 8/10/11 
f 10/13/12 21/30/12 20/31/12 
f 20/31/12 8/14/12 10/13/12 
f 12/16/13 22/32/13 21/30/13 
f 21/30/13 10/13/13 12/16/13 
f 14/19/14 23/33/14 22/34/14 
f 22/34/14 12/20/14 14/19/14 
f 16/22/15 24/35/15 23/33/15 
f 23/33/15 14/19/15 16/22/15 
f 4/4/16 18/26/16 24/36/16 
f 24/36/16 16/24/16 4/4/16 
f 25/37/17 26/38/17 27/39/17 
f 27/39/17 28/40/17 25/37/17 
f 29/41/18 30/42/18 26/43/18 
f 26/43/18 25/44/18 29/41/18 
f 31/45/19 32/46/19 30/42/19 
f 30/42/19 29/41/19 31/45/19 
f 33/47/20 34/48/20 32/49/20 
f 32/49/20 31/50/20 33/47/20 
f 35/51/21 36/52/21 34/48/21 
f 34/48/21 33/47/21 35/51/21 
f 37/53/22 38/54/22 36/55/22 
f 36/55/22 35/56/22 37/53/22 
f 39/57/23 40/58/23 38/54/23 
f 38/54/23 37/53/23 39/57/23 
f 28/40/24 27/39/24 40/59/24 
f 40/59/24 39/60/24 28/40/24 
f 41/61/25 42/62/25 43/63/25 
f 43/63/25 44/64/25 41/61/25 
f 42/65/26 45/66/26 46/67/26 
f 46/67/26 43/68/26 42/65/26 
f 45/66/27 47/69/27 48/70/27 
f 48/70/27 46/67/27 45/66/27 
f 47/71/28 49/72/28 50/73/28 
f 50/73/28 48/74/28 47/71/28 
f 49/72/29 51/75/29 52/76/29 
f 52/76/29 50/73/29 49/72/29 
f 51/77/30 53/78/30 54/79/30 
f 54/79/30 52/80/30 51/77/30 
f 53/78/31 55/81/31 56/82/31 
f 56/82/31 54/79/31 53/78/31 
f 55/83/32 41/61/32 44/64/32 
f 44/64/32 56/84/32 55/83/32 
f 44/64/33 43/63/33 57/85/33 
f 57/85/34 57/85/34 44/64/34 
f 43/68/35 46/67/35 57/86/35 
f 57/86/34 57/86/34 43/68/34 
f 46/67/36 48/70/36 57/86/36 
f 57/86/34 57/86/34 46/67/34 
f 48/74/37 50/73/37 57/87/37 
f 57/87/34 57/87/34 48/74/34 
f 50/73/38 52/76/38 57/87/38 
f 57/87/34 57/87/34 50/73/34 
f 52/80/39 54/79/39 57/88/39 
f 57/88/34 57/88/34 52/80/34 
f 54/79/40 56/82/40 57/88/40 
f 57/88/34 57/88/34 54/79/34 
f 56/84/41 44/64/41 57/85/41 
f 57/85/34 57/85/34 56/84/34 
f 58/89/42 59/90/42 60/91/42 
f 60/91/42 61/92/42 62/93/42 
f 62/93/42 63/94/42 64/95/42 
f 60/91/42 62/93/42 64/95/42 
f 58/89/42 60/91/42 64/95/42 
f 65/96/42 58/89/42 64/95/42 
f 57/85/34 57/85/34 57/85/34 
f 57/85/34 57/85/34 57/85/34 
f 57/85/34 57/85/34 57/85/34 
f 57/85/34 57/85/34 57/85/34 
f 57/85/34 57/85/34 57/85/34 
f 57/85/34 57/85/34 57/85/34 
f 2/97/43 1/98/43 64/95/43 
f 64/95/43 63/94/43 2/97/43 
f 1/98/44 15/99/44 65/96/44 
f 65/96/44 64/95/44 1/98/44 
f 15/99/45 13/100/45 58/89/45 
f 58/89/45 65/96/45 15/99/45 
f 13/100/46 11/101/46 59/90/46 
f 59/90/46 58/89/46 13/100/46 
f 11/101/47 9/102/47 60/91/47 
f 60/91/47 59/90/47 11/101/47 
f 9/102/48 7/103/48 61/92/48 
f 61/92/48 60/91/48 9/102/48 
f 7/103/49 5/104/49 62/93/49 
f 62/93/49 61/92/49 7/103/49 
f 5/104/50 2/97/50 63/94/50 
f 63/94/50 62/93/50 5/104/50 
f 42/105/51 41/106/51 27/107/51 
f 27/107/51 26/108/51 42/105/51 
f 45/109/52 42/105/52 26/108/52 
f 26/108/52 30/110/52 45/109/52 
f 47/111/53 45/109/53 30/110/53 
f 30/110/53 32/112/53 47/111/53 
f 49/113/54 47/111/54 32/112/54 
f 32/112/54 34/114/54 49/113/54 
f 51/115/55 49/113/55 34/114/55 
f 34/114/55 36/116/55 51/115/55 
f 53/117/56 51/115/56 36/116/56 
f 36/116/56 38/118/56 53/117/56 
f 55/119/57 53/117/57 38/118/57 
f 38/118/57 40/120/57 55/119/57 
f 41/106/58 55/119/58 40/120/58 
f 40/120/58 27/107/58 41/106/58 
f 25/121/59 28/122/59 18/123/59 
f 18/123/59 17/124/59 25/121/59 
f 29/125/60 25/121/60 17/124/60 
f 17/124/60 19/126/60 29/125/60 
f 31/127/61 29/125/61 19/126/61 
f 19/126/61 20/128/61 31/127/61 
f 33/129/62 31/127/62 20/128/62 
f 20/128/62 21/130/62 33/129/62 
f 35/131/63 33/129/63 21/130/63 
f 21/130/63 22/132/63 35/131/63 
f 37/133/64 35/131/64 22/132/64 
f 22/132/64 23/134/64 37/133/64 
f 39/135/65 37/133/65 23/134/65 
f 23/134/65 24/136/65 39/135/65 
f 28/122/66 39/135/66 24/136/66 
f 24/136/66 18/123/66 28/122/66 
f 66/137/67 67/138/68 68/139/69 
f 68/139/69 69/140/70 66/137/67 
f 70/141/71 71/142/72 67/143/68 
f 67/143/68 66/144/67 70/141/71 
f 72/145/73 73/146/74 71/147/72 
f 71/147/72 70/148/71 72/145/73 
f 74/149/75 75/150/76 73/146/74 
f 73/146/74 72/145/73 74/149/75 
f 76/151/77 77/152/78 75/153/76 
f 75/153/76 74/154/75 76/151/77 
f 69/140/70 68/139/69 77/155/78 
f 77/155/78 76/156/77 69/140/70 
f 74/157/42 72/158/42 70/159/42 
f 70/159/42 66/160/42 69/161/42 
f 74/157/42 70/159/42 69/161/42 
f 76/162/42 74/157/42 69/161/42 
f 78/163/79 79/164/80 68/139/69 
f 68/139/69 67/138/68 78/163/79 
f 80/165/81 78/166/79 67/143/68 
f 67/143/68 71/142/72 80/165/81 
f 81/167/82 80/168/81 71/147/72 
f 71/147/72 73/146/74 81/167/82 
f 82/169/83 81/167/82 73/146/74 
f 73/146/74 75/150/76 82/169/83 
f 83/170/84 82/171/83 75/153/76 
f 75/153/76 77/152/78 83/170/84 
f 79/164/80 83/172/84 77/155/78 
f 77/155/78 68/139/69 79/164/80 
# 168 faces

